<mxfile host="Electron" modified="2024-05-25T07:56:49.630Z" agent="Mozilla/5.0 (Windows NT 10.0; Win64; x64) AppleWebKit/537.36 (KHTML, like Gecko) draw.io/23.1.5 Chrome/120.0.6099.109 Electron/28.1.0 Safari/537.36" etag="ERbbIRyqH5IzSR8wDqNv" version="23.1.5" type="device">
  <diagram name="Strona-1" id="P7oqspRZhonXnESyJbj4">
    <mxGraphModel dx="1183" dy="785" grid="1" gridSize="10" guides="1" tooltips="1" connect="1" arrows="1" fold="1" page="1" pageScale="1" pageWidth="1800" pageHeight="1400" math="0" shadow="0">
      <root>
        <mxCell id="0" />
        <mxCell id="1" parent="0" />
        <mxCell id="OHUBg8ISCdBeGzGATLLX-1" value="&lt;font style=&quot;font-size: 29px;&quot;&gt;10M50DAF484C7G&lt;/font&gt;" style="rounded=0;whiteSpace=wrap;html=1;" vertex="1" parent="1">
          <mxGeometry x="380" y="300" width="770" height="660" as="geometry" />
        </mxCell>
        <mxCell id="OHUBg8ISCdBeGzGATLLX-169" style="edgeStyle=orthogonalEdgeStyle;rounded=0;orthogonalLoop=1;jettySize=auto;html=1;exitX=0;exitY=0.5;exitDx=0;exitDy=0;endArrow=none;endFill=0;" edge="1" parent="1" source="OHUBg8ISCdBeGzGATLLX-2" target="OHUBg8ISCdBeGzGATLLX-115">
          <mxGeometry relative="1" as="geometry" />
        </mxCell>
        <mxCell id="OHUBg8ISCdBeGzGATLLX-2" value="AB9" style="text;html=1;align=center;verticalAlign=middle;whiteSpace=wrap;rounded=0;" vertex="1" parent="1">
          <mxGeometry x="380" y="360" width="40" height="30" as="geometry" />
        </mxCell>
        <mxCell id="OHUBg8ISCdBeGzGATLLX-3" value="&lt;font style=&quot;font-size: 24px;&quot;&gt;Moduł karty SD&lt;br&gt;1&lt;br&gt;&lt;/font&gt;" style="rounded=0;whiteSpace=wrap;html=1;" vertex="1" parent="1">
          <mxGeometry x="220" y="1130" width="210" height="220" as="geometry" />
        </mxCell>
        <mxCell id="OHUBg8ISCdBeGzGATLLX-4" value="CMD&amp;nbsp; &amp;nbsp;D0&amp;nbsp; &amp;nbsp; &amp;nbsp; SCK&amp;nbsp; &amp;nbsp;CS&amp;nbsp; VCC GND" style="text;html=1;align=center;verticalAlign=middle;whiteSpace=wrap;rounded=0;" vertex="1" parent="1">
          <mxGeometry x="220" y="1130" width="210" height="30" as="geometry" />
        </mxCell>
        <mxCell id="OHUBg8ISCdBeGzGATLLX-14" value="VCC" style="text;html=1;align=center;verticalAlign=middle;whiteSpace=wrap;rounded=0;" vertex="1" parent="1">
          <mxGeometry x="380" y="300" width="60" height="30" as="geometry" />
        </mxCell>
        <mxCell id="OHUBg8ISCdBeGzGATLLX-15" value="&lt;font style=&quot;font-size: 24px;&quot;&gt;Moduł karty SD&lt;br&gt;2&lt;br&gt;&lt;/font&gt;" style="rounded=0;whiteSpace=wrap;html=1;" vertex="1" parent="1">
          <mxGeometry x="450" y="1130" width="210" height="220" as="geometry" />
        </mxCell>
        <mxCell id="OHUBg8ISCdBeGzGATLLX-16" value="CMD&amp;nbsp; &amp;nbsp;D0&amp;nbsp; &amp;nbsp; &amp;nbsp; SCK&amp;nbsp; &amp;nbsp;CS&amp;nbsp; VCC GND" style="text;html=1;align=center;verticalAlign=middle;whiteSpace=wrap;rounded=0;" vertex="1" parent="1">
          <mxGeometry x="450" y="1130" width="210" height="30" as="geometry" />
        </mxCell>
        <mxCell id="OHUBg8ISCdBeGzGATLLX-17" value="&lt;font style=&quot;font-size: 24px;&quot;&gt;Moduł karty SD&lt;br&gt;3&lt;br&gt;&lt;/font&gt;" style="rounded=0;whiteSpace=wrap;html=1;" vertex="1" parent="1">
          <mxGeometry x="680" y="1130" width="210" height="220" as="geometry" />
        </mxCell>
        <mxCell id="OHUBg8ISCdBeGzGATLLX-18" value="CMD&amp;nbsp; &amp;nbsp;D0&amp;nbsp; &amp;nbsp; &amp;nbsp; SCK&amp;nbsp; &amp;nbsp;CS&amp;nbsp; VCC GND" style="text;html=1;align=center;verticalAlign=middle;whiteSpace=wrap;rounded=0;" vertex="1" parent="1">
          <mxGeometry x="680" y="1130" width="210" height="30" as="geometry" />
        </mxCell>
        <mxCell id="OHUBg8ISCdBeGzGATLLX-19" value="&lt;font style=&quot;font-size: 24px;&quot;&gt;Moduł karty SD&lt;br&gt;4&lt;br&gt;&lt;/font&gt;" style="rounded=0;whiteSpace=wrap;html=1;" vertex="1" parent="1">
          <mxGeometry x="910" y="1130" width="210" height="220" as="geometry" />
        </mxCell>
        <mxCell id="OHUBg8ISCdBeGzGATLLX-20" value="CMD&amp;nbsp; &amp;nbsp;D0&amp;nbsp; &amp;nbsp; &amp;nbsp; SCK&amp;nbsp; &amp;nbsp;CS&amp;nbsp; VCC GND" style="text;html=1;align=center;verticalAlign=middle;whiteSpace=wrap;rounded=0;" vertex="1" parent="1">
          <mxGeometry x="910" y="1130" width="210" height="30" as="geometry" />
        </mxCell>
        <mxCell id="OHUBg8ISCdBeGzGATLLX-21" value="" style="endArrow=none;html=1;rounded=0;" edge="1" parent="1">
          <mxGeometry width="50" height="50" relative="1" as="geometry">
            <mxPoint x="30" y="36.07838350183823" as="sourcePoint" />
            <mxPoint x="1780" y="36" as="targetPoint" />
          </mxGeometry>
        </mxCell>
        <mxCell id="OHUBg8ISCdBeGzGATLLX-22" value="GND" style="edgeLabel;html=1;align=center;verticalAlign=middle;resizable=0;points=[];" vertex="1" connectable="0" parent="OHUBg8ISCdBeGzGATLLX-21">
          <mxGeometry x="-0.9806" y="-6" relative="1" as="geometry">
            <mxPoint x="2" y="-22" as="offset" />
          </mxGeometry>
        </mxCell>
        <mxCell id="OHUBg8ISCdBeGzGATLLX-23" value="GND" style="text;html=1;align=center;verticalAlign=middle;whiteSpace=wrap;rounded=0;" vertex="1" parent="1">
          <mxGeometry x="430" y="300" width="60" height="30" as="geometry" />
        </mxCell>
        <mxCell id="OHUBg8ISCdBeGzGATLLX-24" value="" style="endArrow=none;html=1;rounded=0;entryX=0.5;entryY=0;entryDx=0;entryDy=0;" edge="1" parent="1" target="OHUBg8ISCdBeGzGATLLX-23">
          <mxGeometry width="50" height="50" relative="1" as="geometry">
            <mxPoint x="460" y="40" as="sourcePoint" />
            <mxPoint x="440" y="220" as="targetPoint" />
          </mxGeometry>
        </mxCell>
        <mxCell id="OHUBg8ISCdBeGzGATLLX-25" value="" style="endArrow=none;html=1;rounded=0;fillColor=#a20025;strokeColor=#6F0000;" edge="1" parent="1">
          <mxGeometry width="50" height="50" relative="1" as="geometry">
            <mxPoint x="30" y="70.07838350183823" as="sourcePoint" />
            <mxPoint x="1780" y="70" as="targetPoint" />
          </mxGeometry>
        </mxCell>
        <mxCell id="OHUBg8ISCdBeGzGATLLX-26" value="5V" style="edgeLabel;html=1;align=center;verticalAlign=middle;resizable=0;points=[];" vertex="1" connectable="0" parent="OHUBg8ISCdBeGzGATLLX-25">
          <mxGeometry x="-0.9806" y="-6" relative="1" as="geometry">
            <mxPoint x="2" y="-22" as="offset" />
          </mxGeometry>
        </mxCell>
        <mxCell id="OHUBg8ISCdBeGzGATLLX-27" value="" style="endArrow=none;html=1;rounded=0;fillColor=#a20025;strokeColor=#6F0000;" edge="1" parent="1">
          <mxGeometry width="50" height="50" relative="1" as="geometry">
            <mxPoint x="30" y="100.07838350183823" as="sourcePoint" />
            <mxPoint x="1780" y="100" as="targetPoint" />
          </mxGeometry>
        </mxCell>
        <mxCell id="OHUBg8ISCdBeGzGATLLX-28" value="3,3V" style="edgeLabel;html=1;align=center;verticalAlign=middle;resizable=0;points=[];" vertex="1" connectable="0" parent="OHUBg8ISCdBeGzGATLLX-27">
          <mxGeometry x="-0.9806" y="-6" relative="1" as="geometry">
            <mxPoint x="2" y="-22" as="offset" />
          </mxGeometry>
        </mxCell>
        <mxCell id="OHUBg8ISCdBeGzGATLLX-29" value="" style="endArrow=none;html=1;rounded=0;exitX=0.5;exitY=0;exitDx=0;exitDy=0;fillColor=#a20025;strokeColor=#6F0000;" edge="1" parent="1" source="OHUBg8ISCdBeGzGATLLX-14">
          <mxGeometry width="50" height="50" relative="1" as="geometry">
            <mxPoint x="450" y="280" as="sourcePoint" />
            <mxPoint x="410" y="100" as="targetPoint" />
          </mxGeometry>
        </mxCell>
        <mxCell id="OHUBg8ISCdBeGzGATLLX-30" value="" style="endArrow=none;html=1;rounded=0;fillColor=#a20025;strokeColor=#6F0000;" edge="1" parent="1">
          <mxGeometry width="50" height="50" relative="1" as="geometry">
            <mxPoint x="1180" y="1010" as="sourcePoint" />
            <mxPoint x="1180" y="100" as="targetPoint" />
          </mxGeometry>
        </mxCell>
        <mxCell id="OHUBg8ISCdBeGzGATLLX-31" value="" style="endArrow=none;html=1;rounded=0;fillColor=#a20025;strokeColor=#6F0000;" edge="1" parent="1">
          <mxGeometry width="50" height="50" relative="1" as="geometry">
            <mxPoint x="1180" y="1010" as="sourcePoint" />
            <mxPoint x="380" y="1010" as="targetPoint" />
          </mxGeometry>
        </mxCell>
        <mxCell id="OHUBg8ISCdBeGzGATLLX-32" value="" style="endArrow=none;html=1;rounded=0;fillColor=#a20025;strokeColor=#6F0000;exitX=0.756;exitY=-0.073;exitDx=0;exitDy=0;exitPerimeter=0;" edge="1" parent="1" source="OHUBg8ISCdBeGzGATLLX-4">
          <mxGeometry width="50" height="50" relative="1" as="geometry">
            <mxPoint x="379" y="1120" as="sourcePoint" />
            <mxPoint x="379.17" y="1008.32" as="targetPoint" />
          </mxGeometry>
        </mxCell>
        <mxCell id="OHUBg8ISCdBeGzGATLLX-33" value="" style="endArrow=none;html=1;rounded=0;exitX=0.762;exitY=-0.116;exitDx=0;exitDy=0;exitPerimeter=0;fillColor=#a20025;strokeColor=#6F0000;" edge="1" parent="1" source="OHUBg8ISCdBeGzGATLLX-16">
          <mxGeometry width="50" height="50" relative="1" as="geometry">
            <mxPoint x="610" y="1060" as="sourcePoint" />
            <mxPoint x="610" y="1008" as="targetPoint" />
          </mxGeometry>
        </mxCell>
        <mxCell id="OHUBg8ISCdBeGzGATLLX-34" value="" style="endArrow=none;html=1;rounded=0;exitX=0.764;exitY=-0.095;exitDx=0;exitDy=0;exitPerimeter=0;fillColor=#a20025;strokeColor=#6F0000;" edge="1" parent="1" source="OHUBg8ISCdBeGzGATLLX-18">
          <mxGeometry width="50" height="50" relative="1" as="geometry">
            <mxPoint x="840" y="1060" as="sourcePoint" />
            <mxPoint x="840" y="1008" as="targetPoint" />
          </mxGeometry>
        </mxCell>
        <mxCell id="OHUBg8ISCdBeGzGATLLX-35" value="" style="endArrow=none;html=1;rounded=0;exitX=0.762;exitY=-0.153;exitDx=0;exitDy=0;exitPerimeter=0;fillColor=#a20025;strokeColor=#6F0000;" edge="1" parent="1" source="OHUBg8ISCdBeGzGATLLX-20">
          <mxGeometry width="50" height="50" relative="1" as="geometry">
            <mxPoint x="1070" y="1060" as="sourcePoint" />
            <mxPoint x="1070" y="1010" as="targetPoint" />
          </mxGeometry>
        </mxCell>
        <mxCell id="OHUBg8ISCdBeGzGATLLX-52" style="edgeStyle=orthogonalEdgeStyle;rounded=0;orthogonalLoop=1;jettySize=auto;html=1;exitX=1;exitY=0.5;exitDx=0;exitDy=0;endArrow=baseDash;endFill=0;" edge="1" parent="1" source="OHUBg8ISCdBeGzGATLLX-36">
          <mxGeometry relative="1" as="geometry">
            <mxPoint x="1659.5" y="1380" as="targetPoint" />
          </mxGeometry>
        </mxCell>
        <mxCell id="OHUBg8ISCdBeGzGATLLX-36" value="Dioda" style="rounded=0;whiteSpace=wrap;html=1;fillColor=#a20025;fontColor=#ffffff;strokeColor=#6F0000;" vertex="1" parent="1">
          <mxGeometry x="1499.5" y="1130" width="90" height="30" as="geometry" />
        </mxCell>
        <mxCell id="OHUBg8ISCdBeGzGATLLX-53" style="edgeStyle=orthogonalEdgeStyle;rounded=0;orthogonalLoop=1;jettySize=auto;html=1;exitX=1;exitY=0.5;exitDx=0;exitDy=0;endArrow=baseDash;endFill=0;" edge="1" parent="1" source="OHUBg8ISCdBeGzGATLLX-38">
          <mxGeometry relative="1" as="geometry">
            <mxPoint x="1659.5" y="1380" as="targetPoint" />
          </mxGeometry>
        </mxCell>
        <mxCell id="OHUBg8ISCdBeGzGATLLX-38" value="Dioda" style="rounded=0;whiteSpace=wrap;html=1;fillColor=#008a00;fontColor=#ffffff;strokeColor=#005700;" vertex="1" parent="1">
          <mxGeometry x="1499.5" y="1080" width="90" height="30" as="geometry" />
        </mxCell>
        <mxCell id="OHUBg8ISCdBeGzGATLLX-51" style="edgeStyle=orthogonalEdgeStyle;rounded=0;orthogonalLoop=1;jettySize=auto;html=1;exitX=1;exitY=0.5;exitDx=0;exitDy=0;endArrow=baseDash;endFill=0;" edge="1" parent="1" source="OHUBg8ISCdBeGzGATLLX-39">
          <mxGeometry relative="1" as="geometry">
            <mxPoint x="1659.5" y="1380" as="targetPoint" />
          </mxGeometry>
        </mxCell>
        <mxCell id="OHUBg8ISCdBeGzGATLLX-39" value="Dioda" style="rounded=0;whiteSpace=wrap;html=1;fillColor=#a20025;fontColor=#ffffff;strokeColor=#6F0000;" vertex="1" parent="1">
          <mxGeometry x="1499.5" y="1180" width="90" height="30" as="geometry" />
        </mxCell>
        <mxCell id="OHUBg8ISCdBeGzGATLLX-50" style="edgeStyle=orthogonalEdgeStyle;rounded=0;orthogonalLoop=1;jettySize=auto;html=1;exitX=1;exitY=0.5;exitDx=0;exitDy=0;endArrow=baseDash;endFill=0;" edge="1" parent="1" source="OHUBg8ISCdBeGzGATLLX-40">
          <mxGeometry relative="1" as="geometry">
            <mxPoint x="1659.5" y="1380" as="targetPoint" />
          </mxGeometry>
        </mxCell>
        <mxCell id="OHUBg8ISCdBeGzGATLLX-40" value="Dioda" style="rounded=0;whiteSpace=wrap;html=1;fillColor=#a20025;fontColor=#ffffff;strokeColor=#6F0000;" vertex="1" parent="1">
          <mxGeometry x="1499.5" y="1230" width="90" height="30" as="geometry" />
        </mxCell>
        <mxCell id="OHUBg8ISCdBeGzGATLLX-48" style="edgeStyle=orthogonalEdgeStyle;rounded=0;orthogonalLoop=1;jettySize=auto;html=1;exitX=1;exitY=0.5;exitDx=0;exitDy=0;entryX=0;entryY=0.5;entryDx=0;entryDy=0;endArrow=none;endFill=0;" edge="1" parent="1" source="OHUBg8ISCdBeGzGATLLX-41" target="OHUBg8ISCdBeGzGATLLX-36">
          <mxGeometry relative="1" as="geometry" />
        </mxCell>
        <mxCell id="OHUBg8ISCdBeGzGATLLX-41" value="1 kOhm" style="rounded=0;whiteSpace=wrap;html=1;" vertex="1" parent="1">
          <mxGeometry x="1369.5" y="1130" width="80" height="30" as="geometry" />
        </mxCell>
        <mxCell id="OHUBg8ISCdBeGzGATLLX-49" style="edgeStyle=orthogonalEdgeStyle;rounded=0;orthogonalLoop=1;jettySize=auto;html=1;exitX=1;exitY=0.5;exitDx=0;exitDy=0;entryX=0;entryY=0.5;entryDx=0;entryDy=0;endArrow=none;endFill=0;" edge="1" parent="1" source="OHUBg8ISCdBeGzGATLLX-42" target="OHUBg8ISCdBeGzGATLLX-38">
          <mxGeometry relative="1" as="geometry" />
        </mxCell>
        <mxCell id="OHUBg8ISCdBeGzGATLLX-42" value="1 kOhm" style="rounded=0;whiteSpace=wrap;html=1;" vertex="1" parent="1">
          <mxGeometry x="1369.5" y="1080" width="80" height="30" as="geometry" />
        </mxCell>
        <mxCell id="OHUBg8ISCdBeGzGATLLX-46" style="edgeStyle=orthogonalEdgeStyle;rounded=0;orthogonalLoop=1;jettySize=auto;html=1;exitX=1;exitY=0.5;exitDx=0;exitDy=0;entryX=0;entryY=0.5;entryDx=0;entryDy=0;endArrow=none;endFill=0;" edge="1" parent="1" source="OHUBg8ISCdBeGzGATLLX-44" target="OHUBg8ISCdBeGzGATLLX-40">
          <mxGeometry relative="1" as="geometry" />
        </mxCell>
        <mxCell id="OHUBg8ISCdBeGzGATLLX-44" value="1 kOhm" style="rounded=0;whiteSpace=wrap;html=1;" vertex="1" parent="1">
          <mxGeometry x="1369.5" y="1230" width="80" height="30" as="geometry" />
        </mxCell>
        <mxCell id="OHUBg8ISCdBeGzGATLLX-47" style="edgeStyle=orthogonalEdgeStyle;rounded=0;orthogonalLoop=1;jettySize=auto;html=1;exitX=1;exitY=0.5;exitDx=0;exitDy=0;endArrow=none;endFill=0;" edge="1" parent="1" source="OHUBg8ISCdBeGzGATLLX-45" target="OHUBg8ISCdBeGzGATLLX-39">
          <mxGeometry relative="1" as="geometry" />
        </mxCell>
        <mxCell id="OHUBg8ISCdBeGzGATLLX-45" value="1 kOhm" style="rounded=0;whiteSpace=wrap;html=1;" vertex="1" parent="1">
          <mxGeometry x="1369.5" y="1180" width="80" height="30" as="geometry" />
        </mxCell>
        <mxCell id="OHUBg8ISCdBeGzGATLLX-54" value="&lt;font style=&quot;font-size: 24px;&quot;&gt;Przycisk &lt;br&gt;pojemnościowy&lt;/font&gt;" style="rounded=0;whiteSpace=wrap;html=1;" vertex="1" parent="1">
          <mxGeometry x="1360" y="850" width="300" height="110" as="geometry" />
        </mxCell>
        <mxCell id="OHUBg8ISCdBeGzGATLLX-55" value="VCC" style="text;html=1;align=center;verticalAlign=middle;whiteSpace=wrap;rounded=0;" vertex="1" parent="1">
          <mxGeometry x="1360" y="890" width="60" height="30" as="geometry" />
        </mxCell>
        <mxCell id="OHUBg8ISCdBeGzGATLLX-56" value="GND" style="text;html=1;align=center;verticalAlign=middle;whiteSpace=wrap;rounded=0;" vertex="1" parent="1">
          <mxGeometry x="1360" y="860" width="60" height="30" as="geometry" />
        </mxCell>
        <mxCell id="OHUBg8ISCdBeGzGATLLX-57" value="OUT" style="text;html=1;align=center;verticalAlign=middle;whiteSpace=wrap;rounded=0;" vertex="1" parent="1">
          <mxGeometry x="1360" y="920" width="60" height="30" as="geometry" />
        </mxCell>
        <mxCell id="OHUBg8ISCdBeGzGATLLX-58" value="" style="endArrow=none;html=1;rounded=0;" edge="1" parent="1">
          <mxGeometry width="50" height="50" relative="1" as="geometry">
            <mxPoint x="1340" y="1030" as="sourcePoint" />
            <mxPoint x="1340" y="40" as="targetPoint" />
          </mxGeometry>
        </mxCell>
        <mxCell id="OHUBg8ISCdBeGzGATLLX-59" value="&lt;font style=&quot;font-size: 24px;&quot;&gt;Przycisk &lt;br&gt;pojemnościowy&lt;/font&gt;" style="rounded=0;whiteSpace=wrap;html=1;" vertex="1" parent="1">
          <mxGeometry x="1360" y="730" width="300" height="110" as="geometry" />
        </mxCell>
        <mxCell id="OHUBg8ISCdBeGzGATLLX-60" value="VCC" style="text;html=1;align=center;verticalAlign=middle;whiteSpace=wrap;rounded=0;" vertex="1" parent="1">
          <mxGeometry x="1360" y="770" width="60" height="30" as="geometry" />
        </mxCell>
        <mxCell id="OHUBg8ISCdBeGzGATLLX-61" value="GND" style="text;html=1;align=center;verticalAlign=middle;whiteSpace=wrap;rounded=0;" vertex="1" parent="1">
          <mxGeometry x="1360" y="740" width="60" height="30" as="geometry" />
        </mxCell>
        <mxCell id="OHUBg8ISCdBeGzGATLLX-62" value="OUT" style="text;html=1;align=center;verticalAlign=middle;whiteSpace=wrap;rounded=0;" vertex="1" parent="1">
          <mxGeometry x="1360" y="800" width="60" height="30" as="geometry" />
        </mxCell>
        <mxCell id="OHUBg8ISCdBeGzGATLLX-63" value="" style="endArrow=none;html=1;rounded=0;entryX=0;entryY=0.5;entryDx=0;entryDy=0;endFill=0;" edge="1" parent="1" target="OHUBg8ISCdBeGzGATLLX-56">
          <mxGeometry width="50" height="50" relative="1" as="geometry">
            <mxPoint x="1340" y="875" as="sourcePoint" />
            <mxPoint x="1240" y="740" as="targetPoint" />
          </mxGeometry>
        </mxCell>
        <mxCell id="OHUBg8ISCdBeGzGATLLX-64" value="" style="endArrow=none;html=1;rounded=0;" edge="1" parent="1">
          <mxGeometry width="50" height="50" relative="1" as="geometry">
            <mxPoint x="1340" y="750" as="sourcePoint" />
            <mxPoint x="1360" y="750" as="targetPoint" />
          </mxGeometry>
        </mxCell>
        <mxCell id="OHUBg8ISCdBeGzGATLLX-65" value="" style="endArrow=none;html=1;rounded=0;fillColor=#a20025;strokeColor=#6F0000;" edge="1" parent="1">
          <mxGeometry width="50" height="50" relative="1" as="geometry">
            <mxPoint x="1320" y="900" as="sourcePoint" />
            <mxPoint x="1320" y="100" as="targetPoint" />
          </mxGeometry>
        </mxCell>
        <mxCell id="OHUBg8ISCdBeGzGATLLX-66" value="" style="endArrow=none;html=1;rounded=0;entryX=0;entryY=0.5;entryDx=0;entryDy=0;fillColor=#a20025;strokeColor=#6F0000;" edge="1" parent="1" target="OHUBg8ISCdBeGzGATLLX-60">
          <mxGeometry width="50" height="50" relative="1" as="geometry">
            <mxPoint x="1320" y="785" as="sourcePoint" />
            <mxPoint x="1260" y="860" as="targetPoint" />
          </mxGeometry>
        </mxCell>
        <mxCell id="OHUBg8ISCdBeGzGATLLX-68" value="" style="endArrow=none;html=1;rounded=0;fillColor=#a20025;strokeColor=#6F0000;" edge="1" parent="1">
          <mxGeometry width="50" height="50" relative="1" as="geometry">
            <mxPoint x="1320" y="900" as="sourcePoint" />
            <mxPoint x="1360" y="900" as="targetPoint" />
          </mxGeometry>
        </mxCell>
        <mxCell id="OHUBg8ISCdBeGzGATLLX-69" value="&lt;font style=&quot;font-size: 24px;&quot;&gt;HM10&lt;/font&gt;" style="rounded=0;whiteSpace=wrap;html=1;" vertex="1" parent="1">
          <mxGeometry x="1360" y="520" width="300" height="160" as="geometry" />
        </mxCell>
        <mxCell id="OHUBg8ISCdBeGzGATLLX-70" value="STATE" style="text;html=1;align=center;verticalAlign=middle;whiteSpace=wrap;rounded=0;" vertex="1" parent="1">
          <mxGeometry x="1360" y="520" width="60" height="30" as="geometry" />
        </mxCell>
        <mxCell id="OHUBg8ISCdBeGzGATLLX-71" value="RXD" style="text;html=1;align=center;verticalAlign=middle;whiteSpace=wrap;rounded=0;" vertex="1" parent="1">
          <mxGeometry x="1360" y="550" width="60" height="30" as="geometry" />
        </mxCell>
        <mxCell id="OHUBg8ISCdBeGzGATLLX-72" value="TXD" style="text;html=1;align=center;verticalAlign=middle;whiteSpace=wrap;rounded=0;" vertex="1" parent="1">
          <mxGeometry x="1360" y="580" width="60" height="30" as="geometry" />
        </mxCell>
        <mxCell id="OHUBg8ISCdBeGzGATLLX-73" value="GND" style="text;html=1;align=center;verticalAlign=middle;whiteSpace=wrap;rounded=0;" vertex="1" parent="1">
          <mxGeometry x="1360" y="610" width="60" height="30" as="geometry" />
        </mxCell>
        <mxCell id="OHUBg8ISCdBeGzGATLLX-74" value="VCC" style="text;html=1;align=center;verticalAlign=middle;whiteSpace=wrap;rounded=0;" vertex="1" parent="1">
          <mxGeometry x="1360" y="640" width="60" height="30" as="geometry" />
        </mxCell>
        <mxCell id="OHUBg8ISCdBeGzGATLLX-76" value="" style="endArrow=none;html=1;rounded=0;fillColor=#a20025;strokeColor=#6F0000;" edge="1" parent="1">
          <mxGeometry width="50" height="50" relative="1" as="geometry">
            <mxPoint x="1300" y="660" as="sourcePoint" />
            <mxPoint x="1300" y="70" as="targetPoint" />
          </mxGeometry>
        </mxCell>
        <mxCell id="OHUBg8ISCdBeGzGATLLX-77" value="" style="endArrow=none;html=1;rounded=0;entryX=0;entryY=0.5;entryDx=0;entryDy=0;" edge="1" parent="1" target="OHUBg8ISCdBeGzGATLLX-73">
          <mxGeometry width="50" height="50" relative="1" as="geometry">
            <mxPoint x="1340" y="625" as="sourcePoint" />
            <mxPoint x="1280" y="650" as="targetPoint" />
          </mxGeometry>
        </mxCell>
        <mxCell id="OHUBg8ISCdBeGzGATLLX-78" value="" style="endArrow=none;html=1;rounded=0;entryX=0;entryY=0.5;entryDx=0;entryDy=0;fillColor=#a20025;strokeColor=#6F0000;" edge="1" parent="1" target="OHUBg8ISCdBeGzGATLLX-74">
          <mxGeometry width="50" height="50" relative="1" as="geometry">
            <mxPoint x="1300" y="655" as="sourcePoint" />
            <mxPoint x="1280" y="650" as="targetPoint" />
          </mxGeometry>
        </mxCell>
        <mxCell id="OHUBg8ISCdBeGzGATLLX-79" value="&lt;font style=&quot;font-size: 24px;&quot;&gt;HC-SR04&lt;/font&gt;" style="rounded=0;whiteSpace=wrap;html=1;" vertex="1" parent="1">
          <mxGeometry x="1360" y="370" width="300" height="130" as="geometry" />
        </mxCell>
        <mxCell id="OHUBg8ISCdBeGzGATLLX-80" value="VCC" style="text;html=1;align=center;verticalAlign=middle;whiteSpace=wrap;rounded=0;" vertex="1" parent="1">
          <mxGeometry x="1360" y="370" width="60" height="30" as="geometry" />
        </mxCell>
        <mxCell id="OHUBg8ISCdBeGzGATLLX-82" value="GND" style="text;html=1;align=center;verticalAlign=middle;whiteSpace=wrap;rounded=0;" vertex="1" parent="1">
          <mxGeometry x="1360" y="400" width="60" height="30" as="geometry" />
        </mxCell>
        <mxCell id="OHUBg8ISCdBeGzGATLLX-83" value="TRIGG" style="text;html=1;align=center;verticalAlign=middle;whiteSpace=wrap;rounded=0;" vertex="1" parent="1">
          <mxGeometry x="1360" y="430" width="60" height="30" as="geometry" />
        </mxCell>
        <mxCell id="OHUBg8ISCdBeGzGATLLX-84" value="ECHO" style="text;html=1;align=center;verticalAlign=middle;whiteSpace=wrap;rounded=0;" vertex="1" parent="1">
          <mxGeometry x="1360" y="460" width="60" height="30" as="geometry" />
        </mxCell>
        <mxCell id="OHUBg8ISCdBeGzGATLLX-85" value="" style="endArrow=none;html=1;rounded=0;entryX=0;entryY=0.5;entryDx=0;entryDy=0;fillColor=#a20025;strokeColor=#6F0000;" edge="1" parent="1" target="OHUBg8ISCdBeGzGATLLX-80">
          <mxGeometry width="50" height="50" relative="1" as="geometry">
            <mxPoint x="1300" y="385" as="sourcePoint" />
            <mxPoint x="1290" y="370" as="targetPoint" />
          </mxGeometry>
        </mxCell>
        <mxCell id="OHUBg8ISCdBeGzGATLLX-86" value="" style="endArrow=none;html=1;rounded=0;entryX=0;entryY=0.5;entryDx=0;entryDy=0;" edge="1" parent="1" target="OHUBg8ISCdBeGzGATLLX-82">
          <mxGeometry width="50" height="50" relative="1" as="geometry">
            <mxPoint x="1340" y="415" as="sourcePoint" />
            <mxPoint x="1290" y="370" as="targetPoint" />
          </mxGeometry>
        </mxCell>
        <mxCell id="OHUBg8ISCdBeGzGATLLX-87" value="&lt;font style=&quot;font-size: 24px;&quot;&gt;MEMS&lt;/font&gt;" style="rounded=0;whiteSpace=wrap;html=1;" vertex="1" parent="1">
          <mxGeometry x="1360" y="160" width="300" height="190" as="geometry" />
        </mxCell>
        <mxCell id="OHUBg8ISCdBeGzGATLLX-90" style="edgeStyle=orthogonalEdgeStyle;rounded=0;orthogonalLoop=1;jettySize=auto;html=1;exitX=1;exitY=0.5;exitDx=0;exitDy=0;entryX=0.5;entryY=0;entryDx=0;entryDy=0;endArrow=none;endFill=0;" edge="1" parent="1" source="OHUBg8ISCdBeGzGATLLX-88" target="OHUBg8ISCdBeGzGATLLX-89">
          <mxGeometry relative="1" as="geometry" />
        </mxCell>
        <mxCell id="OHUBg8ISCdBeGzGATLLX-88" value="&lt;font style=&quot;font-size: 24px;&quot;&gt;Przycisk na płytce&lt;br&gt;(debounced)&lt;/font&gt;" style="rounded=0;whiteSpace=wrap;html=1;" vertex="1" parent="1">
          <mxGeometry x="180" y="140" width="210" height="60" as="geometry" />
        </mxCell>
        <mxCell id="OHUBg8ISCdBeGzGATLLX-89" value="B8" style="text;html=1;align=center;verticalAlign=middle;whiteSpace=wrap;rounded=0;" vertex="1" parent="1">
          <mxGeometry x="480" y="300" width="30" height="30" as="geometry" />
        </mxCell>
        <mxCell id="OHUBg8ISCdBeGzGATLLX-91" value="VCC" style="text;html=1;align=center;verticalAlign=middle;whiteSpace=wrap;rounded=0;" vertex="1" parent="1">
          <mxGeometry x="1360" y="160" width="60" height="30" as="geometry" />
        </mxCell>
        <mxCell id="OHUBg8ISCdBeGzGATLLX-92" value="GND" style="text;html=1;align=center;verticalAlign=middle;whiteSpace=wrap;rounded=0;" vertex="1" parent="1">
          <mxGeometry x="1360" y="190" width="60" height="30" as="geometry" />
        </mxCell>
        <mxCell id="OHUBg8ISCdBeGzGATLLX-93" value="" style="endArrow=none;html=1;rounded=0;entryX=0;entryY=0.5;entryDx=0;entryDy=0;fillColor=#a20025;strokeColor=#6F0000;" edge="1" parent="1" target="OHUBg8ISCdBeGzGATLLX-91">
          <mxGeometry width="50" height="50" relative="1" as="geometry">
            <mxPoint x="1320" y="175" as="sourcePoint" />
            <mxPoint x="1520" y="320" as="targetPoint" />
          </mxGeometry>
        </mxCell>
        <mxCell id="OHUBg8ISCdBeGzGATLLX-94" value="" style="endArrow=none;html=1;rounded=0;entryX=0;entryY=0.5;entryDx=0;entryDy=0;" edge="1" parent="1" target="OHUBg8ISCdBeGzGATLLX-92">
          <mxGeometry width="50" height="50" relative="1" as="geometry">
            <mxPoint x="1340" y="205" as="sourcePoint" />
            <mxPoint x="1520" y="320" as="targetPoint" />
          </mxGeometry>
        </mxCell>
        <mxCell id="OHUBg8ISCdBeGzGATLLX-95" value="WS" style="text;html=1;align=center;verticalAlign=middle;whiteSpace=wrap;rounded=0;" vertex="1" parent="1">
          <mxGeometry x="1360" y="220" width="60" height="30" as="geometry" />
        </mxCell>
        <mxCell id="OHUBg8ISCdBeGzGATLLX-96" value="SEL" style="text;html=1;align=center;verticalAlign=middle;whiteSpace=wrap;rounded=0;" vertex="1" parent="1">
          <mxGeometry x="1360" y="250" width="60" height="30" as="geometry" />
        </mxCell>
        <mxCell id="OHUBg8ISCdBeGzGATLLX-97" value="SCK" style="text;html=1;align=center;verticalAlign=middle;whiteSpace=wrap;rounded=0;" vertex="1" parent="1">
          <mxGeometry x="1360" y="280" width="60" height="30" as="geometry" />
        </mxCell>
        <mxCell id="OHUBg8ISCdBeGzGATLLX-98" value="DO" style="text;html=1;align=center;verticalAlign=middle;whiteSpace=wrap;rounded=0;" vertex="1" parent="1">
          <mxGeometry x="1360" y="310" width="60" height="30" as="geometry" />
        </mxCell>
        <mxCell id="OHUBg8ISCdBeGzGATLLX-104" style="edgeStyle=orthogonalEdgeStyle;rounded=0;orthogonalLoop=1;jettySize=auto;html=1;exitX=1;exitY=0.5;exitDx=0;exitDy=0;endArrow=baseDash;endFill=0;" edge="1" parent="1" source="OHUBg8ISCdBeGzGATLLX-99">
          <mxGeometry relative="1" as="geometry">
            <mxPoint x="157.66666666666663" y="1060" as="targetPoint" />
          </mxGeometry>
        </mxCell>
        <mxCell id="OHUBg8ISCdBeGzGATLLX-99" value="&lt;font style=&quot;font-size: 24px;&quot;&gt;Głośnik 2&lt;br&gt;&lt;/font&gt;" style="rounded=0;whiteSpace=wrap;html=1;rotation=90;" vertex="1" parent="1">
          <mxGeometry x="30" y="825" width="255" height="60" as="geometry" />
        </mxCell>
        <mxCell id="OHUBg8ISCdBeGzGATLLX-101" value="" style="endArrow=none;html=1;rounded=0;entryX=0;entryY=1;entryDx=0;entryDy=0;" edge="1" parent="1" target="OHUBg8ISCdBeGzGATLLX-99">
          <mxGeometry width="50" height="50" relative="1" as="geometry">
            <mxPoint x="90" y="690" as="sourcePoint" />
            <mxPoint x="35" y="850" as="targetPoint" />
          </mxGeometry>
        </mxCell>
        <mxCell id="OHUBg8ISCdBeGzGATLLX-102" value="" style="endArrow=none;html=1;rounded=0;entryX=1;entryY=1;entryDx=0;entryDy=0;" edge="1" parent="1" target="OHUBg8ISCdBeGzGATLLX-99">
          <mxGeometry width="50" height="50" relative="1" as="geometry">
            <mxPoint x="90" y="1020" as="sourcePoint" />
            <mxPoint x="138" y="738" as="targetPoint" />
          </mxGeometry>
        </mxCell>
        <mxCell id="OHUBg8ISCdBeGzGATLLX-103" value="" style="endArrow=none;html=1;rounded=0;" edge="1" parent="1">
          <mxGeometry width="50" height="50" relative="1" as="geometry">
            <mxPoint x="90" y="1020" as="sourcePoint" />
            <mxPoint x="90" y="690" as="targetPoint" />
          </mxGeometry>
        </mxCell>
        <mxCell id="OHUBg8ISCdBeGzGATLLX-114" style="edgeStyle=orthogonalEdgeStyle;rounded=0;orthogonalLoop=1;jettySize=auto;html=1;exitX=1;exitY=0.5;exitDx=0;exitDy=0;endArrow=baseDash;endFill=0;" edge="1" parent="1" source="OHUBg8ISCdBeGzGATLLX-115">
          <mxGeometry relative="1" as="geometry">
            <mxPoint x="167.66666666666663" y="650" as="targetPoint" />
          </mxGeometry>
        </mxCell>
        <mxCell id="OHUBg8ISCdBeGzGATLLX-115" value="&lt;font style=&quot;font-size: 24px;&quot;&gt;Głośnik 1&lt;/font&gt;" style="rounded=0;whiteSpace=wrap;html=1;rotation=90;" vertex="1" parent="1">
          <mxGeometry x="40" y="415" width="255" height="60" as="geometry" />
        </mxCell>
        <mxCell id="OHUBg8ISCdBeGzGATLLX-116" value="" style="endArrow=none;html=1;rounded=0;entryX=0;entryY=1;entryDx=0;entryDy=0;" edge="1" parent="1" target="OHUBg8ISCdBeGzGATLLX-115">
          <mxGeometry width="50" height="50" relative="1" as="geometry">
            <mxPoint x="100" y="280" as="sourcePoint" />
            <mxPoint x="45" y="440" as="targetPoint" />
          </mxGeometry>
        </mxCell>
        <mxCell id="OHUBg8ISCdBeGzGATLLX-117" value="" style="endArrow=none;html=1;rounded=0;entryX=1;entryY=1;entryDx=0;entryDy=0;" edge="1" parent="1" target="OHUBg8ISCdBeGzGATLLX-115">
          <mxGeometry width="50" height="50" relative="1" as="geometry">
            <mxPoint x="100" y="610" as="sourcePoint" />
            <mxPoint x="148" y="328" as="targetPoint" />
          </mxGeometry>
        </mxCell>
        <mxCell id="OHUBg8ISCdBeGzGATLLX-118" value="" style="endArrow=none;html=1;rounded=0;" edge="1" parent="1">
          <mxGeometry width="50" height="50" relative="1" as="geometry">
            <mxPoint x="100" y="610" as="sourcePoint" />
            <mxPoint x="100" y="280" as="targetPoint" />
          </mxGeometry>
        </mxCell>
        <mxCell id="OHUBg8ISCdBeGzGATLLX-168" style="edgeStyle=orthogonalEdgeStyle;rounded=0;orthogonalLoop=1;jettySize=auto;html=1;exitX=0;exitY=0.5;exitDx=0;exitDy=0;entryX=0.5;entryY=0;entryDx=0;entryDy=0;endArrow=none;endFill=0;" edge="1" parent="1" source="OHUBg8ISCdBeGzGATLLX-119" target="OHUBg8ISCdBeGzGATLLX-115">
          <mxGeometry relative="1" as="geometry" />
        </mxCell>
        <mxCell id="OHUBg8ISCdBeGzGATLLX-119" value="Y10" style="text;html=1;align=center;verticalAlign=middle;whiteSpace=wrap;rounded=0;" vertex="1" parent="1">
          <mxGeometry x="380" y="330" width="40" height="30" as="geometry" />
        </mxCell>
        <mxCell id="OHUBg8ISCdBeGzGATLLX-170" style="edgeStyle=orthogonalEdgeStyle;rounded=0;orthogonalLoop=1;jettySize=auto;html=1;exitX=0;exitY=0.5;exitDx=0;exitDy=0;entryX=0.5;entryY=0;entryDx=0;entryDy=0;endArrow=none;endFill=0;" edge="1" parent="1" source="OHUBg8ISCdBeGzGATLLX-125" target="OHUBg8ISCdBeGzGATLLX-115">
          <mxGeometry relative="1" as="geometry" />
        </mxCell>
        <mxCell id="OHUBg8ISCdBeGzGATLLX-125" value="V10" style="text;html=1;align=center;verticalAlign=middle;whiteSpace=wrap;rounded=0;" vertex="1" parent="1">
          <mxGeometry x="380" y="390" width="40" height="30" as="geometry" />
        </mxCell>
        <mxCell id="OHUBg8ISCdBeGzGATLLX-171" style="edgeStyle=orthogonalEdgeStyle;rounded=0;orthogonalLoop=1;jettySize=auto;html=1;exitX=0;exitY=0.5;exitDx=0;exitDy=0;entryX=0.5;entryY=0;entryDx=0;entryDy=0;endArrow=none;endFill=0;" edge="1" parent="1" source="OHUBg8ISCdBeGzGATLLX-126" target="OHUBg8ISCdBeGzGATLLX-115">
          <mxGeometry relative="1" as="geometry" />
        </mxCell>
        <mxCell id="OHUBg8ISCdBeGzGATLLX-126" value="W10" style="text;html=1;align=center;verticalAlign=middle;whiteSpace=wrap;rounded=0;" vertex="1" parent="1">
          <mxGeometry x="380" y="415" width="40" height="30" as="geometry" />
        </mxCell>
        <mxCell id="OHUBg8ISCdBeGzGATLLX-172" style="edgeStyle=orthogonalEdgeStyle;rounded=0;orthogonalLoop=1;jettySize=auto;html=1;exitX=0;exitY=0.5;exitDx=0;exitDy=0;entryX=0.5;entryY=0;entryDx=0;entryDy=0;endArrow=none;endFill=0;" edge="1" parent="1" source="OHUBg8ISCdBeGzGATLLX-127" target="OHUBg8ISCdBeGzGATLLX-115">
          <mxGeometry relative="1" as="geometry" />
        </mxCell>
        <mxCell id="OHUBg8ISCdBeGzGATLLX-127" value="V9" style="text;html=1;align=center;verticalAlign=middle;whiteSpace=wrap;rounded=0;" vertex="1" parent="1">
          <mxGeometry x="380" y="445" width="40" height="30" as="geometry" />
        </mxCell>
        <mxCell id="OHUBg8ISCdBeGzGATLLX-173" style="edgeStyle=orthogonalEdgeStyle;rounded=0;orthogonalLoop=1;jettySize=auto;html=1;exitX=0;exitY=0.5;exitDx=0;exitDy=0;entryX=0.5;entryY=0;entryDx=0;entryDy=0;endArrow=none;endFill=0;" edge="1" parent="1" source="OHUBg8ISCdBeGzGATLLX-128" target="OHUBg8ISCdBeGzGATLLX-115">
          <mxGeometry relative="1" as="geometry" />
        </mxCell>
        <mxCell id="OHUBg8ISCdBeGzGATLLX-128" value="W9" style="text;html=1;align=center;verticalAlign=middle;whiteSpace=wrap;rounded=0;" vertex="1" parent="1">
          <mxGeometry x="380" y="470" width="40" height="30" as="geometry" />
        </mxCell>
        <mxCell id="OHUBg8ISCdBeGzGATLLX-174" style="edgeStyle=orthogonalEdgeStyle;rounded=0;orthogonalLoop=1;jettySize=auto;html=1;exitX=0;exitY=0.5;exitDx=0;exitDy=0;endArrow=none;endFill=0;" edge="1" parent="1" source="OHUBg8ISCdBeGzGATLLX-129" target="OHUBg8ISCdBeGzGATLLX-115">
          <mxGeometry relative="1" as="geometry" />
        </mxCell>
        <mxCell id="OHUBg8ISCdBeGzGATLLX-129" value="V8" style="text;html=1;align=center;verticalAlign=middle;whiteSpace=wrap;rounded=0;" vertex="1" parent="1">
          <mxGeometry x="380" y="500" width="40" height="30" as="geometry" />
        </mxCell>
        <mxCell id="OHUBg8ISCdBeGzGATLLX-175" style="edgeStyle=orthogonalEdgeStyle;rounded=0;orthogonalLoop=1;jettySize=auto;html=1;exitX=0;exitY=0.5;exitDx=0;exitDy=0;endArrow=none;endFill=0;" edge="1" parent="1" source="OHUBg8ISCdBeGzGATLLX-130" target="OHUBg8ISCdBeGzGATLLX-115">
          <mxGeometry relative="1" as="geometry" />
        </mxCell>
        <mxCell id="OHUBg8ISCdBeGzGATLLX-130" value="W8" style="text;html=1;align=center;verticalAlign=middle;whiteSpace=wrap;rounded=0;" vertex="1" parent="1">
          <mxGeometry x="380" y="530" width="40" height="30" as="geometry" />
        </mxCell>
        <mxCell id="OHUBg8ISCdBeGzGATLLX-176" style="edgeStyle=orthogonalEdgeStyle;rounded=0;orthogonalLoop=1;jettySize=auto;html=1;exitX=0;exitY=0.5;exitDx=0;exitDy=0;endArrow=none;endFill=0;" edge="1" parent="1" source="OHUBg8ISCdBeGzGATLLX-131" target="OHUBg8ISCdBeGzGATLLX-115">
          <mxGeometry relative="1" as="geometry" />
        </mxCell>
        <mxCell id="OHUBg8ISCdBeGzGATLLX-131" value="V7" style="text;html=1;align=center;verticalAlign=middle;whiteSpace=wrap;rounded=0;" vertex="1" parent="1">
          <mxGeometry x="380" y="560" width="40" height="30" as="geometry" />
        </mxCell>
        <mxCell id="OHUBg8ISCdBeGzGATLLX-177" style="edgeStyle=orthogonalEdgeStyle;rounded=0;orthogonalLoop=1;jettySize=auto;html=1;exitX=0;exitY=0.5;exitDx=0;exitDy=0;entryX=0.5;entryY=0;entryDx=0;entryDy=0;endArrow=none;endFill=0;" edge="1" parent="1" source="OHUBg8ISCdBeGzGATLLX-132" target="OHUBg8ISCdBeGzGATLLX-115">
          <mxGeometry relative="1" as="geometry">
            <mxPoint x="200" y="450" as="targetPoint" />
          </mxGeometry>
        </mxCell>
        <mxCell id="OHUBg8ISCdBeGzGATLLX-132" value="W7" style="text;html=1;align=center;verticalAlign=middle;whiteSpace=wrap;rounded=0;" vertex="1" parent="1">
          <mxGeometry x="380" y="590" width="40" height="30" as="geometry" />
        </mxCell>
        <mxCell id="OHUBg8ISCdBeGzGATLLX-158" style="edgeStyle=orthogonalEdgeStyle;rounded=0;orthogonalLoop=1;jettySize=auto;html=1;exitX=0;exitY=0.5;exitDx=0;exitDy=0;entryX=0.25;entryY=0;entryDx=0;entryDy=0;endArrow=none;endFill=0;" edge="1" parent="1" source="OHUBg8ISCdBeGzGATLLX-145" target="OHUBg8ISCdBeGzGATLLX-99">
          <mxGeometry relative="1" as="geometry" />
        </mxCell>
        <mxCell id="OHUBg8ISCdBeGzGATLLX-145" value="AA20" style="text;html=1;align=center;verticalAlign=middle;whiteSpace=wrap;rounded=0;" vertex="1" parent="1">
          <mxGeometry x="380" y="620" width="40" height="30" as="geometry" />
        </mxCell>
        <mxCell id="OHUBg8ISCdBeGzGATLLX-159" style="edgeStyle=orthogonalEdgeStyle;rounded=0;orthogonalLoop=1;jettySize=auto;html=1;exitX=0;exitY=0.5;exitDx=0;exitDy=0;entryX=0.25;entryY=0;entryDx=0;entryDy=0;endArrow=none;endFill=0;" edge="1" parent="1" source="OHUBg8ISCdBeGzGATLLX-146" target="OHUBg8ISCdBeGzGATLLX-99">
          <mxGeometry relative="1" as="geometry" />
        </mxCell>
        <mxCell id="OHUBg8ISCdBeGzGATLLX-146" value="AB21" style="text;html=1;align=center;verticalAlign=middle;whiteSpace=wrap;rounded=0;" vertex="1" parent="1">
          <mxGeometry x="380" y="650" width="40" height="30" as="geometry" />
        </mxCell>
        <mxCell id="OHUBg8ISCdBeGzGATLLX-160" style="edgeStyle=orthogonalEdgeStyle;rounded=0;orthogonalLoop=1;jettySize=auto;html=1;exitX=0;exitY=0.5;exitDx=0;exitDy=0;entryX=0.25;entryY=0;entryDx=0;entryDy=0;endArrow=none;endFill=0;" edge="1" parent="1" source="OHUBg8ISCdBeGzGATLLX-147" target="OHUBg8ISCdBeGzGATLLX-99">
          <mxGeometry relative="1" as="geometry" />
        </mxCell>
        <mxCell id="OHUBg8ISCdBeGzGATLLX-147" value="AA17" style="text;html=1;align=center;verticalAlign=middle;whiteSpace=wrap;rounded=0;" vertex="1" parent="1">
          <mxGeometry x="380" y="680" width="40" height="30" as="geometry" />
        </mxCell>
        <mxCell id="OHUBg8ISCdBeGzGATLLX-161" style="edgeStyle=orthogonalEdgeStyle;rounded=0;orthogonalLoop=1;jettySize=auto;html=1;exitX=0;exitY=0.5;exitDx=0;exitDy=0;entryX=0.25;entryY=0;entryDx=0;entryDy=0;endArrow=none;endFill=0;" edge="1" parent="1" source="OHUBg8ISCdBeGzGATLLX-148" target="OHUBg8ISCdBeGzGATLLX-99">
          <mxGeometry relative="1" as="geometry" />
        </mxCell>
        <mxCell id="OHUBg8ISCdBeGzGATLLX-148" value="AB17" style="text;html=1;align=center;verticalAlign=middle;whiteSpace=wrap;rounded=0;" vertex="1" parent="1">
          <mxGeometry x="380" y="710" width="40" height="30" as="geometry" />
        </mxCell>
        <mxCell id="OHUBg8ISCdBeGzGATLLX-162" style="edgeStyle=orthogonalEdgeStyle;rounded=0;orthogonalLoop=1;jettySize=auto;html=1;exitX=0;exitY=0.5;exitDx=0;exitDy=0;entryX=0.25;entryY=0;entryDx=0;entryDy=0;endArrow=none;endFill=0;" edge="1" parent="1" source="OHUBg8ISCdBeGzGATLLX-149" target="OHUBg8ISCdBeGzGATLLX-99">
          <mxGeometry relative="1" as="geometry" />
        </mxCell>
        <mxCell id="OHUBg8ISCdBeGzGATLLX-149" value="AB17" style="text;html=1;align=center;verticalAlign=middle;whiteSpace=wrap;rounded=0;" vertex="1" parent="1">
          <mxGeometry x="380" y="740" width="40" height="30" as="geometry" />
        </mxCell>
        <mxCell id="OHUBg8ISCdBeGzGATLLX-163" style="edgeStyle=orthogonalEdgeStyle;rounded=0;orthogonalLoop=1;jettySize=auto;html=1;exitX=0;exitY=0.5;exitDx=0;exitDy=0;entryX=0.25;entryY=0;entryDx=0;entryDy=0;endArrow=none;endFill=0;" edge="1" parent="1" source="OHUBg8ISCdBeGzGATLLX-150" target="OHUBg8ISCdBeGzGATLLX-99">
          <mxGeometry relative="1" as="geometry" />
        </mxCell>
        <mxCell id="OHUBg8ISCdBeGzGATLLX-150" value="AA12" style="text;html=1;align=center;verticalAlign=middle;whiteSpace=wrap;rounded=0;" vertex="1" parent="1">
          <mxGeometry x="380" y="770" width="40" height="30" as="geometry" />
        </mxCell>
        <mxCell id="OHUBg8ISCdBeGzGATLLX-164" style="edgeStyle=orthogonalEdgeStyle;rounded=0;orthogonalLoop=1;jettySize=auto;html=1;exitX=0;exitY=0.5;exitDx=0;exitDy=0;entryX=0.25;entryY=0;entryDx=0;entryDy=0;endArrow=none;endFill=0;" edge="1" parent="1" source="OHUBg8ISCdBeGzGATLLX-151" target="OHUBg8ISCdBeGzGATLLX-99">
          <mxGeometry relative="1" as="geometry" />
        </mxCell>
        <mxCell id="OHUBg8ISCdBeGzGATLLX-151" value="AA11" style="text;html=1;align=center;verticalAlign=middle;whiteSpace=wrap;rounded=0;" vertex="1" parent="1">
          <mxGeometry x="380" y="800" width="40" height="30" as="geometry" />
        </mxCell>
        <mxCell id="OHUBg8ISCdBeGzGATLLX-152" value="Y10" style="text;html=1;align=center;verticalAlign=middle;whiteSpace=wrap;rounded=0;" vertex="1" parent="1">
          <mxGeometry x="380" y="830" width="40" height="30" as="geometry" />
        </mxCell>
        <mxCell id="OHUBg8ISCdBeGzGATLLX-154" value="AB9" style="text;html=1;align=center;verticalAlign=middle;whiteSpace=wrap;rounded=0;" vertex="1" parent="1">
          <mxGeometry x="380" y="860" width="40" height="30" as="geometry" />
        </mxCell>
        <mxCell id="OHUBg8ISCdBeGzGATLLX-180" value="" style="endArrow=none;html=1;rounded=0;" edge="1" parent="1">
          <mxGeometry width="50" height="50" relative="1" as="geometry">
            <mxPoint x="410" y="1030" as="sourcePoint" />
            <mxPoint x="1340" y="1030" as="targetPoint" />
          </mxGeometry>
        </mxCell>
        <mxCell id="OHUBg8ISCdBeGzGATLLX-182" value="" style="endArrow=none;html=1;rounded=0;exitX=0.904;exitY=-0.03;exitDx=0;exitDy=0;exitPerimeter=0;" edge="1" parent="1" source="OHUBg8ISCdBeGzGATLLX-4">
          <mxGeometry width="50" height="50" relative="1" as="geometry">
            <mxPoint x="290" y="1160" as="sourcePoint" />
            <mxPoint x="410" y="1030" as="targetPoint" />
          </mxGeometry>
        </mxCell>
        <mxCell id="OHUBg8ISCdBeGzGATLLX-183" value="" style="endArrow=none;html=1;rounded=0;exitX=0.905;exitY=0.074;exitDx=0;exitDy=0;exitPerimeter=0;" edge="1" parent="1" source="OHUBg8ISCdBeGzGATLLX-16">
          <mxGeometry width="50" height="50" relative="1" as="geometry">
            <mxPoint x="390" y="1120" as="sourcePoint" />
            <mxPoint x="640.2083587646484" y="1030" as="targetPoint" />
          </mxGeometry>
        </mxCell>
        <mxCell id="OHUBg8ISCdBeGzGATLLX-184" value="" style="endArrow=none;html=1;rounded=0;exitX=0.898;exitY=-0.081;exitDx=0;exitDy=0;exitPerimeter=0;" edge="1" parent="1" source="OHUBg8ISCdBeGzGATLLX-18">
          <mxGeometry width="50" height="50" relative="1" as="geometry">
            <mxPoint x="870" y="1060" as="sourcePoint" />
            <mxPoint x="870" y="1030" as="targetPoint" />
          </mxGeometry>
        </mxCell>
        <mxCell id="OHUBg8ISCdBeGzGATLLX-185" value="" style="endArrow=none;html=1;rounded=0;exitX=0.901;exitY=-0.013;exitDx=0;exitDy=0;exitPerimeter=0;" edge="1" parent="1" source="OHUBg8ISCdBeGzGATLLX-19">
          <mxGeometry width="50" height="50" relative="1" as="geometry">
            <mxPoint x="810" y="1170" as="sourcePoint" />
            <mxPoint x="1100" y="1030" as="targetPoint" />
          </mxGeometry>
        </mxCell>
        <mxCell id="OHUBg8ISCdBeGzGATLLX-186" value="W12" style="text;html=1;align=center;verticalAlign=middle;whiteSpace=wrap;rounded=0;" vertex="1" parent="1">
          <mxGeometry x="420" y="930" width="40" height="30" as="geometry" />
        </mxCell>
        <mxCell id="OHUBg8ISCdBeGzGATLLX-187" value="W13" style="text;html=1;align=center;verticalAlign=middle;whiteSpace=wrap;rounded=0;" vertex="1" parent="1">
          <mxGeometry x="380" y="930" width="40" height="30" as="geometry" />
        </mxCell>
        <mxCell id="OHUBg8ISCdBeGzGATLLX-188" value="AB13" style="text;html=1;align=center;verticalAlign=middle;whiteSpace=wrap;rounded=0;" vertex="1" parent="1">
          <mxGeometry x="460" y="930" width="40" height="30" as="geometry" />
        </mxCell>
        <mxCell id="OHUBg8ISCdBeGzGATLLX-189" value="AA14" style="text;html=1;align=center;verticalAlign=middle;whiteSpace=wrap;rounded=0;" vertex="1" parent="1">
          <mxGeometry x="500" y="930" width="40" height="30" as="geometry" />
        </mxCell>
        <mxCell id="OHUBg8ISCdBeGzGATLLX-191" style="edgeStyle=orthogonalEdgeStyle;rounded=0;orthogonalLoop=1;jettySize=auto;html=1;exitX=0.5;exitY=1;exitDx=0;exitDy=0;entryX=0.104;entryY=0.037;entryDx=0;entryDy=0;entryPerimeter=0;endArrow=none;endFill=0;" edge="1" parent="1" source="OHUBg8ISCdBeGzGATLLX-187" target="OHUBg8ISCdBeGzGATLLX-4">
          <mxGeometry relative="1" as="geometry">
            <Array as="points">
              <mxPoint x="400" y="970" />
              <mxPoint x="240" y="970" />
              <mxPoint x="240" y="1131" />
            </Array>
          </mxGeometry>
        </mxCell>
        <mxCell id="OHUBg8ISCdBeGzGATLLX-192" style="edgeStyle=orthogonalEdgeStyle;rounded=0;orthogonalLoop=1;jettySize=auto;html=1;exitX=0.5;exitY=1;exitDx=0;exitDy=0;entryX=0.309;entryY=0.02;entryDx=0;entryDy=0;entryPerimeter=0;endArrow=none;endFill=0;" edge="1" parent="1" source="OHUBg8ISCdBeGzGATLLX-186" target="OHUBg8ISCdBeGzGATLLX-4">
          <mxGeometry relative="1" as="geometry">
            <Array as="points">
              <mxPoint x="440" y="980" />
              <mxPoint x="285" y="980" />
            </Array>
          </mxGeometry>
        </mxCell>
        <mxCell id="OHUBg8ISCdBeGzGATLLX-193" style="edgeStyle=orthogonalEdgeStyle;rounded=0;orthogonalLoop=1;jettySize=auto;html=1;exitX=0.5;exitY=1;exitDx=0;exitDy=0;entryX=0.475;entryY=0.034;entryDx=0;entryDy=0;entryPerimeter=0;endArrow=none;endFill=0;" edge="1" parent="1" source="OHUBg8ISCdBeGzGATLLX-188" target="OHUBg8ISCdBeGzGATLLX-4">
          <mxGeometry relative="1" as="geometry">
            <Array as="points">
              <mxPoint x="480" y="990" />
              <mxPoint x="320" y="990" />
            </Array>
          </mxGeometry>
        </mxCell>
        <mxCell id="OHUBg8ISCdBeGzGATLLX-194" style="edgeStyle=orthogonalEdgeStyle;rounded=0;orthogonalLoop=1;jettySize=auto;html=1;exitX=0.5;exitY=1;exitDx=0;exitDy=0;entryX=0.609;entryY=0.038;entryDx=0;entryDy=0;entryPerimeter=0;endArrow=none;endFill=0;" edge="1" parent="1" source="OHUBg8ISCdBeGzGATLLX-189" target="OHUBg8ISCdBeGzGATLLX-4">
          <mxGeometry relative="1" as="geometry">
            <Array as="points">
              <mxPoint x="520" y="1000" />
              <mxPoint x="348" y="1000" />
            </Array>
          </mxGeometry>
        </mxCell>
        <mxCell id="OHUBg8ISCdBeGzGATLLX-200" style="edgeStyle=orthogonalEdgeStyle;rounded=0;orthogonalLoop=1;jettySize=auto;html=1;exitX=0.5;exitY=1;exitDx=0;exitDy=0;entryX=0.25;entryY=0;entryDx=0;entryDy=0;endArrow=none;endFill=0;" edge="1" parent="1" source="OHUBg8ISCdBeGzGATLLX-195" target="OHUBg8ISCdBeGzGATLLX-16">
          <mxGeometry relative="1" as="geometry">
            <Array as="points">
              <mxPoint x="620" y="1050" />
              <mxPoint x="502" y="1050" />
            </Array>
          </mxGeometry>
        </mxCell>
        <mxCell id="OHUBg8ISCdBeGzGATLLX-195" value="AB12" style="text;html=1;align=center;verticalAlign=middle;whiteSpace=wrap;rounded=0;" vertex="1" parent="1">
          <mxGeometry x="600" y="930" width="40" height="30" as="geometry" />
        </mxCell>
        <mxCell id="OHUBg8ISCdBeGzGATLLX-196" value="Y11" style="text;html=1;align=center;verticalAlign=middle;whiteSpace=wrap;rounded=0;" vertex="1" parent="1">
          <mxGeometry x="560" y="930" width="40" height="30" as="geometry" />
        </mxCell>
        <mxCell id="OHUBg8ISCdBeGzGATLLX-197" value="AB11" style="text;html=1;align=center;verticalAlign=middle;whiteSpace=wrap;rounded=0;" vertex="1" parent="1">
          <mxGeometry x="640" y="930" width="40" height="30" as="geometry" />
        </mxCell>
        <mxCell id="OHUBg8ISCdBeGzGATLLX-198" value="W11" style="text;html=1;align=center;verticalAlign=middle;whiteSpace=wrap;rounded=0;" vertex="1" parent="1">
          <mxGeometry x="680" y="930" width="40" height="30" as="geometry" />
        </mxCell>
        <mxCell id="OHUBg8ISCdBeGzGATLLX-199" style="edgeStyle=orthogonalEdgeStyle;rounded=0;orthogonalLoop=1;jettySize=auto;html=1;exitX=0.5;exitY=1;exitDx=0;exitDy=0;entryX=0.119;entryY=0.001;entryDx=0;entryDy=0;entryPerimeter=0;endArrow=none;endFill=0;" edge="1" parent="1" source="OHUBg8ISCdBeGzGATLLX-196" target="OHUBg8ISCdBeGzGATLLX-16">
          <mxGeometry relative="1" as="geometry">
            <Array as="points">
              <mxPoint x="580" y="1045" />
              <mxPoint x="475" y="1045" />
            </Array>
          </mxGeometry>
        </mxCell>
        <mxCell id="OHUBg8ISCdBeGzGATLLX-201" style="edgeStyle=orthogonalEdgeStyle;rounded=0;orthogonalLoop=1;jettySize=auto;html=1;exitX=0.5;exitY=1;exitDx=0;exitDy=0;entryX=0.465;entryY=0.012;entryDx=0;entryDy=0;entryPerimeter=0;endArrow=none;endFill=0;" edge="1" parent="1" source="OHUBg8ISCdBeGzGATLLX-197" target="OHUBg8ISCdBeGzGATLLX-16">
          <mxGeometry relative="1" as="geometry">
            <Array as="points">
              <mxPoint x="660" y="1060" />
              <mxPoint x="548" y="1060" />
            </Array>
          </mxGeometry>
        </mxCell>
        <mxCell id="OHUBg8ISCdBeGzGATLLX-202" style="edgeStyle=orthogonalEdgeStyle;rounded=0;orthogonalLoop=1;jettySize=auto;html=1;exitX=0.5;exitY=1;exitDx=0;exitDy=0;entryX=0.609;entryY=-0.022;entryDx=0;entryDy=0;entryPerimeter=0;endArrow=none;endFill=0;" edge="1" parent="1" source="OHUBg8ISCdBeGzGATLLX-198" target="OHUBg8ISCdBeGzGATLLX-16">
          <mxGeometry relative="1" as="geometry">
            <Array as="points">
              <mxPoint x="700" y="1070" />
              <mxPoint x="578" y="1070" />
            </Array>
          </mxGeometry>
        </mxCell>
        <mxCell id="OHUBg8ISCdBeGzGATLLX-203" value="AB10" style="text;html=1;align=center;verticalAlign=middle;whiteSpace=wrap;rounded=0;" vertex="1" parent="1">
          <mxGeometry x="790" y="930" width="40" height="30" as="geometry" />
        </mxCell>
        <mxCell id="OHUBg8ISCdBeGzGATLLX-204" value="AA10" style="text;html=1;align=center;verticalAlign=middle;whiteSpace=wrap;rounded=0;" vertex="1" parent="1">
          <mxGeometry x="750" y="930" width="40" height="30" as="geometry" />
        </mxCell>
        <mxCell id="OHUBg8ISCdBeGzGATLLX-205" value="AA9" style="text;html=1;align=center;verticalAlign=middle;whiteSpace=wrap;rounded=0;" vertex="1" parent="1">
          <mxGeometry x="830" y="930" width="40" height="30" as="geometry" />
        </mxCell>
        <mxCell id="OHUBg8ISCdBeGzGATLLX-206" value="Y8" style="text;html=1;align=center;verticalAlign=middle;whiteSpace=wrap;rounded=0;" vertex="1" parent="1">
          <mxGeometry x="870" y="930" width="40" height="30" as="geometry" />
        </mxCell>
        <mxCell id="OHUBg8ISCdBeGzGATLLX-207" value="AA8" style="text;html=1;align=center;verticalAlign=middle;whiteSpace=wrap;rounded=0;" vertex="1" parent="1">
          <mxGeometry x="980" y="930" width="40" height="30" as="geometry" />
        </mxCell>
        <mxCell id="OHUBg8ISCdBeGzGATLLX-208" value="Y7" style="text;html=1;align=center;verticalAlign=middle;whiteSpace=wrap;rounded=0;" vertex="1" parent="1">
          <mxGeometry x="940" y="930" width="40" height="30" as="geometry" />
        </mxCell>
        <mxCell id="OHUBg8ISCdBeGzGATLLX-209" value="AA7" style="text;html=1;align=center;verticalAlign=middle;whiteSpace=wrap;rounded=0;" vertex="1" parent="1">
          <mxGeometry x="1020" y="930" width="40" height="30" as="geometry" />
        </mxCell>
        <mxCell id="OHUBg8ISCdBeGzGATLLX-210" value="Y6" style="text;html=1;align=center;verticalAlign=middle;whiteSpace=wrap;rounded=0;" vertex="1" parent="1">
          <mxGeometry x="1060" y="930" width="40" height="30" as="geometry" />
        </mxCell>
        <mxCell id="OHUBg8ISCdBeGzGATLLX-211" style="edgeStyle=orthogonalEdgeStyle;rounded=0;orthogonalLoop=1;jettySize=auto;html=1;exitX=0.5;exitY=1;exitDx=0;exitDy=0;entryX=0.125;entryY=0.001;entryDx=0;entryDy=0;entryPerimeter=0;endArrow=none;endFill=0;" edge="1" parent="1" source="OHUBg8ISCdBeGzGATLLX-204" target="OHUBg8ISCdBeGzGATLLX-18">
          <mxGeometry relative="1" as="geometry">
            <Array as="points">
              <mxPoint x="770" y="1070" />
              <mxPoint x="706" y="1070" />
            </Array>
          </mxGeometry>
        </mxCell>
        <mxCell id="OHUBg8ISCdBeGzGATLLX-212" style="edgeStyle=orthogonalEdgeStyle;rounded=0;orthogonalLoop=1;jettySize=auto;html=1;exitX=0.5;exitY=1;exitDx=0;exitDy=0;entryX=0.276;entryY=0.022;entryDx=0;entryDy=0;entryPerimeter=0;endArrow=none;endFill=0;" edge="1" parent="1" source="OHUBg8ISCdBeGzGATLLX-203" target="OHUBg8ISCdBeGzGATLLX-18">
          <mxGeometry relative="1" as="geometry">
            <Array as="points">
              <mxPoint x="810" y="1080" />
              <mxPoint x="738" y="1080" />
            </Array>
          </mxGeometry>
        </mxCell>
        <mxCell id="OHUBg8ISCdBeGzGATLLX-213" style="edgeStyle=orthogonalEdgeStyle;rounded=0;orthogonalLoop=1;jettySize=auto;html=1;exitX=0.5;exitY=1;exitDx=0;exitDy=0;entryX=0.458;entryY=-0.061;entryDx=0;entryDy=0;entryPerimeter=0;endArrow=none;endFill=0;" edge="1" parent="1" source="OHUBg8ISCdBeGzGATLLX-205" target="OHUBg8ISCdBeGzGATLLX-18">
          <mxGeometry relative="1" as="geometry">
            <Array as="points">
              <mxPoint x="850" y="1090" />
              <mxPoint x="776" y="1090" />
            </Array>
          </mxGeometry>
        </mxCell>
        <mxCell id="OHUBg8ISCdBeGzGATLLX-214" style="edgeStyle=orthogonalEdgeStyle;rounded=0;orthogonalLoop=1;jettySize=auto;html=1;exitX=0.5;exitY=1;exitDx=0;exitDy=0;entryX=0.619;entryY=0.053;entryDx=0;entryDy=0;entryPerimeter=0;endArrow=none;endFill=0;" edge="1" parent="1" source="OHUBg8ISCdBeGzGATLLX-206" target="OHUBg8ISCdBeGzGATLLX-18">
          <mxGeometry relative="1" as="geometry">
            <Array as="points">
              <mxPoint x="890" y="1100" />
              <mxPoint x="810" y="1100" />
            </Array>
          </mxGeometry>
        </mxCell>
        <mxCell id="OHUBg8ISCdBeGzGATLLX-215" style="edgeStyle=orthogonalEdgeStyle;rounded=0;orthogonalLoop=1;jettySize=auto;html=1;exitX=0.75;exitY=1;exitDx=0;exitDy=0;entryX=0.116;entryY=0.102;entryDx=0;entryDy=0;entryPerimeter=0;endArrow=none;endFill=0;" edge="1" parent="1" source="OHUBg8ISCdBeGzGATLLX-1" target="OHUBg8ISCdBeGzGATLLX-20">
          <mxGeometry relative="1" as="geometry" />
        </mxCell>
        <mxCell id="OHUBg8ISCdBeGzGATLLX-216" style="edgeStyle=orthogonalEdgeStyle;rounded=0;orthogonalLoop=1;jettySize=auto;html=1;exitX=0.5;exitY=1;exitDx=0;exitDy=0;entryX=0.272;entryY=-0.004;entryDx=0;entryDy=0;entryPerimeter=0;endArrow=none;endFill=0;" edge="1" parent="1" source="OHUBg8ISCdBeGzGATLLX-207" target="OHUBg8ISCdBeGzGATLLX-20">
          <mxGeometry relative="1" as="geometry" />
        </mxCell>
        <mxCell id="OHUBg8ISCdBeGzGATLLX-217" style="edgeStyle=orthogonalEdgeStyle;rounded=0;orthogonalLoop=1;jettySize=auto;html=1;exitX=0.5;exitY=1;exitDx=0;exitDy=0;entryX=0.47;entryY=-0.015;entryDx=0;entryDy=0;entryPerimeter=0;endArrow=none;endFill=0;" edge="1" parent="1" source="OHUBg8ISCdBeGzGATLLX-209" target="OHUBg8ISCdBeGzGATLLX-20">
          <mxGeometry relative="1" as="geometry" />
        </mxCell>
        <mxCell id="OHUBg8ISCdBeGzGATLLX-218" style="edgeStyle=orthogonalEdgeStyle;rounded=0;orthogonalLoop=1;jettySize=auto;html=1;exitX=0.5;exitY=1;exitDx=0;exitDy=0;entryX=0.618;entryY=-0.004;entryDx=0;entryDy=0;entryPerimeter=0;endArrow=none;endFill=0;" edge="1" parent="1" source="OHUBg8ISCdBeGzGATLLX-210" target="OHUBg8ISCdBeGzGATLLX-20">
          <mxGeometry relative="1" as="geometry">
            <Array as="points">
              <mxPoint x="1080" y="1050" />
              <mxPoint x="1040" y="1050" />
            </Array>
          </mxGeometry>
        </mxCell>
        <mxCell id="OHUBg8ISCdBeGzGATLLX-225" style="edgeStyle=orthogonalEdgeStyle;rounded=0;orthogonalLoop=1;jettySize=auto;html=1;exitX=0.5;exitY=0;exitDx=0;exitDy=0;entryX=0;entryY=0.5;entryDx=0;entryDy=0;endArrow=none;endFill=0;" edge="1" parent="1" source="OHUBg8ISCdBeGzGATLLX-219" target="OHUBg8ISCdBeGzGATLLX-97">
          <mxGeometry relative="1" as="geometry">
            <Array as="points">
              <mxPoint x="1040" y="270" />
              <mxPoint x="1210" y="270" />
              <mxPoint x="1210" y="295" />
            </Array>
          </mxGeometry>
        </mxCell>
        <mxCell id="OHUBg8ISCdBeGzGATLLX-219" value="Y4" style="text;html=1;align=center;verticalAlign=middle;whiteSpace=wrap;rounded=0;" vertex="1" parent="1">
          <mxGeometry x="1020" y="300" width="40" height="30" as="geometry" />
        </mxCell>
        <mxCell id="OHUBg8ISCdBeGzGATLLX-224" style="edgeStyle=orthogonalEdgeStyle;rounded=0;orthogonalLoop=1;jettySize=auto;html=1;exitX=0.5;exitY=0;exitDx=0;exitDy=0;entryX=0;entryY=0.5;entryDx=0;entryDy=0;endArrow=none;endFill=0;" edge="1" parent="1" source="OHUBg8ISCdBeGzGATLLX-220" target="OHUBg8ISCdBeGzGATLLX-98">
          <mxGeometry relative="1" as="geometry">
            <mxPoint x="1080" y="230" as="targetPoint" />
          </mxGeometry>
        </mxCell>
        <mxCell id="OHUBg8ISCdBeGzGATLLX-220" value="AA5" style="text;html=1;align=center;verticalAlign=middle;whiteSpace=wrap;rounded=0;" vertex="1" parent="1">
          <mxGeometry x="980" y="300" width="40" height="30" as="geometry" />
        </mxCell>
        <mxCell id="OHUBg8ISCdBeGzGATLLX-226" style="edgeStyle=orthogonalEdgeStyle;rounded=0;orthogonalLoop=1;jettySize=auto;html=1;exitX=0.5;exitY=0;exitDx=0;exitDy=0;entryX=0;entryY=0.5;entryDx=0;entryDy=0;endArrow=none;endFill=0;" edge="1" parent="1" source="OHUBg8ISCdBeGzGATLLX-222" target="OHUBg8ISCdBeGzGATLLX-96">
          <mxGeometry relative="1" as="geometry" />
        </mxCell>
        <mxCell id="OHUBg8ISCdBeGzGATLLX-222" value="AB3" style="text;html=1;align=center;verticalAlign=middle;whiteSpace=wrap;rounded=0;" vertex="1" parent="1">
          <mxGeometry x="1060" y="300" width="40" height="30" as="geometry" />
        </mxCell>
        <mxCell id="OHUBg8ISCdBeGzGATLLX-227" style="edgeStyle=orthogonalEdgeStyle;rounded=0;orthogonalLoop=1;jettySize=auto;html=1;exitX=0.5;exitY=0;exitDx=0;exitDy=0;entryX=0;entryY=0.5;entryDx=0;entryDy=0;endArrow=none;endFill=0;" edge="1" parent="1" source="OHUBg8ISCdBeGzGATLLX-223" target="OHUBg8ISCdBeGzGATLLX-95">
          <mxGeometry relative="1" as="geometry" />
        </mxCell>
        <mxCell id="OHUBg8ISCdBeGzGATLLX-223" value="Y3" style="text;html=1;align=center;verticalAlign=middle;whiteSpace=wrap;rounded=0;" vertex="1" parent="1">
          <mxGeometry x="1100" y="300" width="40" height="30" as="geometry" />
        </mxCell>
        <mxCell id="OHUBg8ISCdBeGzGATLLX-228" value="&lt;b&gt;&lt;font style=&quot;font-size: 18px;&quot;&gt;Audio_PWM&lt;/font&gt;&lt;/b&gt;" style="text;html=1;align=center;verticalAlign=middle;whiteSpace=wrap;rounded=0;rotation=-90;" vertex="1" parent="1">
          <mxGeometry x="410" y="590" width="100" height="30" as="geometry" />
        </mxCell>
        <mxCell id="OHUBg8ISCdBeGzGATLLX-229" value="" style="shape=crossbar;whiteSpace=wrap;html=1;rounded=1;rotation=90;" vertex="1" parent="1">
          <mxGeometry x="150" y="600" width="560" height="20" as="geometry" />
        </mxCell>
        <mxCell id="OHUBg8ISCdBeGzGATLLX-231" value="" style="shape=crossbar;whiteSpace=wrap;html=1;rounded=1;rotation=-180;" vertex="1" parent="1">
          <mxGeometry x="390" y="910" width="700" height="20" as="geometry" />
        </mxCell>
        <mxCell id="OHUBg8ISCdBeGzGATLLX-232" value="&lt;b&gt;&lt;font style=&quot;font-size: 18px;&quot;&gt;Speed_SPI&lt;/font&gt;&lt;/b&gt;" style="text;html=1;align=center;verticalAlign=middle;whiteSpace=wrap;rounded=0;rotation=-1;" vertex="1" parent="1">
          <mxGeometry x="690" y="885" width="100" height="30" as="geometry" />
        </mxCell>
        <mxCell id="OHUBg8ISCdBeGzGATLLX-233" value="" style="shape=crossbar;whiteSpace=wrap;html=1;rounded=1;rotation=-180;" vertex="1" parent="1">
          <mxGeometry x="980" y="320" width="150" height="20" as="geometry" />
        </mxCell>
        <mxCell id="OHUBg8ISCdBeGzGATLLX-236" value="&lt;b&gt;&lt;font style=&quot;font-size: 18px;&quot;&gt;Microphone&lt;/font&gt;&lt;/b&gt;" style="text;html=1;align=center;verticalAlign=middle;whiteSpace=wrap;rounded=0;rotation=0;" vertex="1" parent="1">
          <mxGeometry x="1000" y="330" width="100" height="30" as="geometry" />
        </mxCell>
        <mxCell id="OHUBg8ISCdBeGzGATLLX-239" value="" style="shape=crossbar;whiteSpace=wrap;html=1;rounded=1;rotation=90;" vertex="1" parent="1">
          <mxGeometry x="903.13" y="736.88" width="413.75" height="20" as="geometry" />
        </mxCell>
        <mxCell id="OHUBg8ISCdBeGzGATLLX-240" value="&lt;span style=&quot;font-size: 18px;&quot;&gt;&lt;b&gt;Distancer (GPIO)&lt;/b&gt;&lt;/span&gt;" style="text;html=1;align=center;verticalAlign=middle;whiteSpace=wrap;rounded=0;rotation=90;" vertex="1" parent="1">
          <mxGeometry x="1030" y="600" width="100" height="30" as="geometry" />
        </mxCell>
        <mxCell id="OHUBg8ISCdBeGzGATLLX-243" style="edgeStyle=orthogonalEdgeStyle;rounded=0;orthogonalLoop=1;jettySize=auto;html=1;exitX=1;exitY=0.5;exitDx=0;exitDy=0;entryX=0;entryY=0.5;entryDx=0;entryDy=0;endArrow=none;endFill=0;" edge="1" parent="1" source="OHUBg8ISCdBeGzGATLLX-241" target="OHUBg8ISCdBeGzGATLLX-57">
          <mxGeometry relative="1" as="geometry" />
        </mxCell>
        <mxCell id="OHUBg8ISCdBeGzGATLLX-241" value="W5" style="text;html=1;align=center;verticalAlign=middle;whiteSpace=wrap;rounded=0;" vertex="1" parent="1">
          <mxGeometry x="1110" y="640" width="40" height="30" as="geometry" />
        </mxCell>
        <mxCell id="OHUBg8ISCdBeGzGATLLX-244" style="edgeStyle=orthogonalEdgeStyle;rounded=0;orthogonalLoop=1;jettySize=auto;html=1;exitX=1;exitY=0.5;exitDx=0;exitDy=0;entryX=0;entryY=0.5;entryDx=0;entryDy=0;endArrow=none;endFill=0;" edge="1" parent="1" source="OHUBg8ISCdBeGzGATLLX-242" target="OHUBg8ISCdBeGzGATLLX-62">
          <mxGeometry relative="1" as="geometry">
            <Array as="points">
              <mxPoint x="1270" y="625" />
              <mxPoint x="1270" y="815" />
            </Array>
          </mxGeometry>
        </mxCell>
        <mxCell id="OHUBg8ISCdBeGzGATLLX-242" value="AA15" style="text;html=1;align=center;verticalAlign=middle;whiteSpace=wrap;rounded=0;" vertex="1" parent="1">
          <mxGeometry x="1110" y="610" width="40" height="30" as="geometry" />
        </mxCell>
        <mxCell id="OHUBg8ISCdBeGzGATLLX-251" style="edgeStyle=orthogonalEdgeStyle;rounded=0;orthogonalLoop=1;jettySize=auto;html=1;exitX=1;exitY=0.5;exitDx=0;exitDy=0;entryX=0;entryY=0.5;entryDx=0;entryDy=0;endArrow=none;endFill=0;" edge="1" parent="1" source="OHUBg8ISCdBeGzGATLLX-247" target="OHUBg8ISCdBeGzGATLLX-72">
          <mxGeometry relative="1" as="geometry" />
        </mxCell>
        <mxCell id="OHUBg8ISCdBeGzGATLLX-247" value="W6" style="text;html=1;align=center;verticalAlign=middle;whiteSpace=wrap;rounded=0;" vertex="1" parent="1">
          <mxGeometry x="1100" y="370" width="50" height="30" as="geometry" />
        </mxCell>
        <mxCell id="OHUBg8ISCdBeGzGATLLX-252" style="edgeStyle=orthogonalEdgeStyle;rounded=0;orthogonalLoop=1;jettySize=auto;html=1;exitX=1;exitY=0.5;exitDx=0;exitDy=0;entryX=0;entryY=0.5;entryDx=0;entryDy=0;endArrow=none;endFill=0;" edge="1" parent="1" source="OHUBg8ISCdBeGzGATLLX-249" target="OHUBg8ISCdBeGzGATLLX-71">
          <mxGeometry relative="1" as="geometry">
            <Array as="points">
              <mxPoint x="1240" y="415" />
              <mxPoint x="1240" y="565" />
            </Array>
          </mxGeometry>
        </mxCell>
        <mxCell id="OHUBg8ISCdBeGzGATLLX-249" value="V5" style="text;html=1;align=center;verticalAlign=middle;whiteSpace=wrap;rounded=0;" vertex="1" parent="1">
          <mxGeometry x="1100" y="400" width="50" height="30" as="geometry" />
        </mxCell>
        <mxCell id="OHUBg8ISCdBeGzGATLLX-255" style="edgeStyle=orthogonalEdgeStyle;rounded=0;orthogonalLoop=1;jettySize=auto;html=1;exitX=1;exitY=0.5;exitDx=0;exitDy=0;entryX=0;entryY=0.5;entryDx=0;entryDy=0;endArrow=none;endFill=0;" edge="1" parent="1" source="OHUBg8ISCdBeGzGATLLX-253" target="OHUBg8ISCdBeGzGATLLX-70">
          <mxGeometry relative="1" as="geometry">
            <Array as="points">
              <mxPoint x="1150" y="440" />
              <mxPoint x="1220" y="440" />
              <mxPoint x="1220" y="535" />
            </Array>
          </mxGeometry>
        </mxCell>
        <mxCell id="OHUBg8ISCdBeGzGATLLX-253" value="Y5" style="text;html=1;align=center;verticalAlign=middle;whiteSpace=wrap;rounded=0;" vertex="1" parent="1">
          <mxGeometry x="1100" y="430" width="50" height="30" as="geometry" />
        </mxCell>
        <mxCell id="OHUBg8ISCdBeGzGATLLX-256" value="" style="shape=crossbar;whiteSpace=wrap;html=1;rounded=1;rotation=-90;" vertex="1" parent="1">
          <mxGeometry x="1065" y="400" width="90" height="20" as="geometry" />
        </mxCell>
        <mxCell id="OHUBg8ISCdBeGzGATLLX-258" value="&lt;b&gt;&lt;font style=&quot;font-size: 18px;&quot;&gt;BLE_UART&lt;/font&gt;&lt;/b&gt;" style="text;html=1;align=center;verticalAlign=middle;whiteSpace=wrap;rounded=0;rotation=-90;" vertex="1" parent="1">
          <mxGeometry x="1030" y="400" width="100" height="30" as="geometry" />
        </mxCell>
        <mxCell id="OHUBg8ISCdBeGzGATLLX-261" style="edgeStyle=orthogonalEdgeStyle;rounded=0;orthogonalLoop=1;jettySize=auto;html=1;exitX=1;exitY=0.5;exitDx=0;exitDy=0;entryX=0;entryY=0.5;entryDx=0;entryDy=0;" edge="1" parent="1" source="OHUBg8ISCdBeGzGATLLX-259" target="OHUBg8ISCdBeGzGATLLX-83">
          <mxGeometry relative="1" as="geometry">
            <Array as="points">
              <mxPoint x="1170" y="555" />
              <mxPoint x="1170" y="445" />
            </Array>
          </mxGeometry>
        </mxCell>
        <mxCell id="OHUBg8ISCdBeGzGATLLX-259" value="AB2" style="text;html=1;align=center;verticalAlign=middle;whiteSpace=wrap;rounded=0;" vertex="1" parent="1">
          <mxGeometry x="1110" y="540" width="40" height="30" as="geometry" />
        </mxCell>
        <mxCell id="OHUBg8ISCdBeGzGATLLX-262" style="edgeStyle=orthogonalEdgeStyle;rounded=0;orthogonalLoop=1;jettySize=auto;html=1;exitX=1;exitY=0.5;exitDx=0;exitDy=0;entryX=0;entryY=0.5;entryDx=0;entryDy=0;" edge="1" parent="1" source="OHUBg8ISCdBeGzGATLLX-260" target="OHUBg8ISCdBeGzGATLLX-84">
          <mxGeometry relative="1" as="geometry">
            <Array as="points">
              <mxPoint x="1190" y="585" />
              <mxPoint x="1190" y="475" />
            </Array>
          </mxGeometry>
        </mxCell>
        <mxCell id="OHUBg8ISCdBeGzGATLLX-260" value="AA2" style="text;html=1;align=center;verticalAlign=middle;whiteSpace=wrap;rounded=0;" vertex="1" parent="1">
          <mxGeometry x="1110" y="570" width="40" height="30" as="geometry" />
        </mxCell>
        <mxCell id="OHUBg8ISCdBeGzGATLLX-268" style="edgeStyle=orthogonalEdgeStyle;rounded=0;orthogonalLoop=1;jettySize=auto;html=1;exitX=1;exitY=0.5;exitDx=0;exitDy=0;entryX=0;entryY=0.5;entryDx=0;entryDy=0;endArrow=none;endFill=0;" edge="1" parent="1" source="OHUBg8ISCdBeGzGATLLX-264" target="OHUBg8ISCdBeGzGATLLX-42">
          <mxGeometry relative="1" as="geometry">
            <Array as="points">
              <mxPoint x="1240" y="685" />
              <mxPoint x="1240" y="1095" />
            </Array>
          </mxGeometry>
        </mxCell>
        <mxCell id="OHUBg8ISCdBeGzGATLLX-264" value="AB20" style="text;html=1;align=center;verticalAlign=middle;whiteSpace=wrap;rounded=0;" vertex="1" parent="1">
          <mxGeometry x="1110" y="670" width="40" height="30" as="geometry" />
        </mxCell>
        <mxCell id="OHUBg8ISCdBeGzGATLLX-269" style="edgeStyle=orthogonalEdgeStyle;rounded=0;orthogonalLoop=1;jettySize=auto;html=1;exitX=1;exitY=0.5;exitDx=0;exitDy=0;entryX=0;entryY=0.5;entryDx=0;entryDy=0;endArrow=none;endFill=0;" edge="1" parent="1" source="OHUBg8ISCdBeGzGATLLX-265" target="OHUBg8ISCdBeGzGATLLX-41">
          <mxGeometry relative="1" as="geometry">
            <Array as="points">
              <mxPoint x="1230" y="715" />
              <mxPoint x="1230" y="1145" />
            </Array>
          </mxGeometry>
        </mxCell>
        <mxCell id="OHUBg8ISCdBeGzGATLLX-265" value="Y19" style="text;html=1;align=center;verticalAlign=middle;whiteSpace=wrap;rounded=0;" vertex="1" parent="1">
          <mxGeometry x="1110" y="700" width="40" height="30" as="geometry" />
        </mxCell>
        <mxCell id="OHUBg8ISCdBeGzGATLLX-270" style="edgeStyle=orthogonalEdgeStyle;rounded=0;orthogonalLoop=1;jettySize=auto;html=1;exitX=1;exitY=0.5;exitDx=0;exitDy=0;entryX=0;entryY=0.5;entryDx=0;entryDy=0;endArrow=none;endFill=0;" edge="1" parent="1" source="OHUBg8ISCdBeGzGATLLX-266" target="OHUBg8ISCdBeGzGATLLX-45">
          <mxGeometry relative="1" as="geometry">
            <Array as="points">
              <mxPoint x="1210" y="744" />
              <mxPoint x="1210" y="1195" />
            </Array>
          </mxGeometry>
        </mxCell>
        <mxCell id="OHUBg8ISCdBeGzGATLLX-266" value="AA19" style="text;html=1;align=center;verticalAlign=middle;whiteSpace=wrap;rounded=0;" vertex="1" parent="1">
          <mxGeometry x="1110" y="728.75" width="40" height="30" as="geometry" />
        </mxCell>
        <mxCell id="OHUBg8ISCdBeGzGATLLX-271" style="edgeStyle=orthogonalEdgeStyle;rounded=0;orthogonalLoop=1;jettySize=auto;html=1;exitX=1;exitY=0.5;exitDx=0;exitDy=0;entryX=0;entryY=0.5;entryDx=0;entryDy=0;endArrow=none;endFill=0;" edge="1" parent="1" source="OHUBg8ISCdBeGzGATLLX-267" target="OHUBg8ISCdBeGzGATLLX-44">
          <mxGeometry relative="1" as="geometry">
            <Array as="points">
              <mxPoint x="1190" y="769" />
              <mxPoint x="1190" y="1245" />
            </Array>
          </mxGeometry>
        </mxCell>
        <mxCell id="OHUBg8ISCdBeGzGATLLX-267" value="AB19" style="text;html=1;align=center;verticalAlign=middle;whiteSpace=wrap;rounded=0;" vertex="1" parent="1">
          <mxGeometry x="1110" y="753.75" width="40" height="30" as="geometry" />
        </mxCell>
        <mxCell id="OHUBg8ISCdBeGzGATLLX-272" value="B10" style="text;html=1;align=center;verticalAlign=middle;whiteSpace=wrap;rounded=0;" vertex="1" parent="1">
          <mxGeometry x="1110" y="783.75" width="40" height="30" as="geometry" />
        </mxCell>
        <mxCell id="OHUBg8ISCdBeGzGATLLX-273" value="A10" style="text;html=1;align=center;verticalAlign=middle;whiteSpace=wrap;rounded=0;" vertex="1" parent="1">
          <mxGeometry x="1110" y="810" width="40" height="30" as="geometry" />
        </mxCell>
        <mxCell id="OHUBg8ISCdBeGzGATLLX-274" value="A9" style="text;html=1;align=center;verticalAlign=middle;whiteSpace=wrap;rounded=0;" vertex="1" parent="1">
          <mxGeometry x="1110" y="840" width="40" height="30" as="geometry" />
        </mxCell>
        <mxCell id="OHUBg8ISCdBeGzGATLLX-275" value="A8" style="text;html=1;align=center;verticalAlign=middle;whiteSpace=wrap;rounded=0;" vertex="1" parent="1">
          <mxGeometry x="1110" y="870" width="40" height="30" as="geometry" />
        </mxCell>
        <mxCell id="OHUBg8ISCdBeGzGATLLX-276" value="B11" style="text;html=1;align=center;verticalAlign=middle;whiteSpace=wrap;rounded=0;" vertex="1" parent="1">
          <mxGeometry x="1110" y="900" width="40" height="30" as="geometry" />
        </mxCell>
        <mxCell id="OHUBg8ISCdBeGzGATLLX-277" value="A11" style="text;html=1;align=center;verticalAlign=middle;whiteSpace=wrap;rounded=0;" vertex="1" parent="1">
          <mxGeometry x="1110" y="930" width="40" height="30" as="geometry" />
        </mxCell>
      </root>
    </mxGraphModel>
  </diagram>
</mxfile>
